<svg xmlns="http://www.w3.org/2000/svg" width="960" height="560" viewBox="0 0 960 560">
<rect width="100%" height="100%" fill="#fff"/>
<style>text{font-family:Arial,sans-serif;font-size:13px;fill:#1f2937}.small{font-size:11px;fill:#4b5563}.axis{stroke:#111827;stroke-width:1.4}.grid{stroke:#e5e7eb;stroke-width:1}.lookup{fill:none;stroke:#2563eb;stroke-width:3}.fit{fill:none;stroke:#dc2626;stroke-width:2;stroke-dasharray:7 5}.dot{fill:#2563eb}</style>
<text x="480.0" y="24" text-anchor="middle" font-size="18" font-weight="700">NTC 10K 3950: Datasheet Lookup vs 4PL Fit</text>
<text x="480.0" y="44" text-anchor="middle" class="small">4PL: raw = D + (A-D)/(1+((T+21)/C)^B), A=3674.703, B=2.195749, C=46.750295, D=-119.922, RMSE=113.51 raw</text>
<line class="grid" x1="70.0" y1="45" x2="70.0" y2="490"/>
<text x="70.0" y="512" text-anchor="middle">-20</text>
<line class="grid" x1="189.3" y1="45" x2="189.3" y2="490"/>
<text x="189.3" y="512" text-anchor="middle">0</text>
<line class="grid" x1="308.6" y1="45" x2="308.6" y2="490"/>
<text x="308.6" y="512" text-anchor="middle">20</text>
<line class="grid" x1="427.9" y1="45" x2="427.9" y2="490"/>
<text x="427.9" y="512" text-anchor="middle">40</text>
<line class="grid" x1="547.2" y1="45" x2="547.2" y2="490"/>
<text x="547.2" y="512" text-anchor="middle">60</text>
<line class="grid" x1="666.6" y1="45" x2="666.6" y2="490"/>
<text x="666.6" y="512" text-anchor="middle">80</text>
<line class="grid" x1="785.9" y1="45" x2="785.9" y2="490"/>
<text x="785.9" y="512" text-anchor="middle">100</text>
<line class="grid" x1="905.2" y1="45" x2="905.2" y2="490"/>
<text x="905.2" y="512" text-anchor="middle">120</text>
<line class="grid" x1="70" y1="490.0" x2="935" y2="490.0"/>
<text x="60" y="494.0" text-anchor="end">0</text>
<line class="grid" x1="70" y1="434.4" x2="935" y2="434.4"/>
<text x="60" y="438.4" text-anchor="end">512</text>
<line class="grid" x1="70" y1="378.7" x2="935" y2="378.7"/>
<text x="60" y="382.7" text-anchor="end">1024</text>
<line class="grid" x1="70" y1="323.1" x2="935" y2="323.1"/>
<text x="60" y="327.1" text-anchor="end">1536</text>
<line class="grid" x1="70" y1="267.4" x2="935" y2="267.4"/>
<text x="60" y="271.4" text-anchor="end">2048</text>
<line class="grid" x1="70" y1="211.8" x2="935" y2="211.8"/>
<text x="60" y="215.8" text-anchor="end">2560</text>
<line class="grid" x1="70" y1="156.2" x2="935" y2="156.2"/>
<text x="60" y="160.2" text-anchor="end">3072</text>
<line class="grid" x1="70" y1="100.5" x2="935" y2="100.5"/>
<text x="60" y="104.5" text-anchor="end">3584</text>
<line class="axis" x1="70" y1="490" x2="935" y2="490"/>
<line class="axis" x1="70" y1="45" x2="70" y2="490"/>
<polyline class="lookup" points="70.0,90.7 76.0,93.0 81.9,95.3 87.9,97.7 93.9,100.3 99.8,102.9 105.8,105.5 111.8,108.3 117.7,111.1 123.7,114.0 129.7,117.0 135.6,120.1 141.6,123.2 147.6,126.5 153.5,129.8 159.5,133.2 165.4,136.7 171.4,140.3 177.4,144.0 183.3,147.7 189.3,151.5 195.3,155.6 201.2,159.6 207.2,163.8 213.2,168.1 219.1,172.4 225.1,176.8 231.1,181.2 237.0,185.7 243.0,190.3 249.0,194.9 254.9,199.6 260.9,204.3 266.9,209.1 272.8,213.9 278.8,218.7 284.8,223.5 290.7,228.4 296.7,233.3 302.7,238.1 308.6,243.0 314.6,248.0 320.6,252.9 326.5,257.8 332.5,262.6 338.4,267.5 344.4,272.3 350.4,277.1 356.3,281.9 362.3,286.6 368.3,291.3 374.2,296.0 380.2,300.6 386.2,305.1 392.1,309.6 398.1,314.1 404.1,318.5 410.0,322.8 416.0,327.0 422.0,331.2 427.9,335.3 433.9,339.4 439.9,343.4 445.8,347.3 451.8,351.1 457.8,354.8 463.7,358.5 469.7,362.1 475.7,365.6 481.6,369.0 487.6,372.4 493.6,375.7 499.5,378.9 505.5,382.0 511.4,385.1 517.4,388.0 523.4,390.9 529.3,393.8 535.3,396.5 541.3,399.2 547.2,401.8 553.2,404.3 559.2,406.8 565.1,409.2 571.1,411.5 577.1,413.8 583.0,416.0 589.0,418.1 595.0,420.2 600.9,422.2 606.9,424.2 612.9,426.1 618.8,427.9 624.8,429.7 630.8,431.4 636.7,433.1 642.7,434.8 648.7,436.4 654.6,437.9 660.6,439.4 666.6,440.8 672.5,442.2 678.5,443.6 684.4,444.9 690.4,446.2 696.4,447.4 702.3,448.6 708.3,449.7 714.3,450.8 720.2,451.9 726.2,452.9 732.2,454.0 738.1,455.0 744.1,455.9 750.1,456.8 756.0,457.7 762.0,458.6 768.0,459.5 773.9,460.3 779.9,461.1 785.9,461.9 791.8,462.6 797.8,463.3 803.8,464.0 809.7,464.7 815.7,465.4 821.7,466.0 827.6,466.7 833.6,467.3 839.6,467.9 845.5,468.5 851.5,469.0 857.4,469.6 863.4,470.1 869.4,470.7 875.3,471.2 881.3,471.7 887.3,472.2 893.2,472.7 899.2,473.1 905.2,473.6 911.1,474.0 917.1,474.4 923.1,474.8 929.0,475.2 935.0,475.6"/>
<polyline class="fit" points="70.0,90.8 71.5,90.8 73.0,90.9 74.5,91.0 76.0,91.1 77.5,91.2 78.9,91.3 80.4,91.5 81.9,91.7 83.4,91.9 84.9,92.1 86.4,92.3 87.9,92.5 89.4,92.8 90.9,93.1 92.4,93.4 93.9,93.7 95.4,94.0 96.8,94.4 98.3,94.8 99.8,95.2 101.3,95.6 102.8,96.0 104.3,96.5 105.8,97.0 107.3,97.4 108.8,98.0 110.3,98.5 111.8,99.0 113.2,99.6 114.7,100.2 116.2,100.8 117.7,101.5 119.2,102.1 120.7,102.8 122.2,103.5 123.7,104.2 125.2,104.9 126.7,105.6 128.2,106.4 129.7,107.2 131.1,108.0 132.6,108.8 134.1,109.6 135.6,110.5 137.1,111.4 138.6,112.3 140.1,113.2 141.6,114.1 143.1,115.0 144.6,116.0 146.1,117.0 147.6,117.9 149.0,119.0 150.5,120.0 152.0,121.0 153.5,122.1 155.0,123.1 156.5,124.2 158.0,125.3 159.5,126.4 161.0,127.6 162.5,128.7 164.0,129.9 165.4,131.0 166.9,132.2 168.4,133.4 169.9,134.6 171.4,135.8 172.9,137.1 174.4,138.3 175.9,139.6 177.4,140.8 178.9,142.1 180.4,143.4 181.9,144.7 183.3,146.0 184.8,147.3 186.3,148.7 187.8,150.0 189.3,151.3 190.8,152.7 192.3,154.1 193.8,155.4 195.3,156.8 196.8,158.2 198.3,159.6 199.8,161.0 201.2,162.4 202.7,163.8 204.2,165.3 205.7,166.7 207.2,168.1 208.7,169.6 210.2,171.0 211.7,172.5 213.2,173.9 214.7,175.4 216.2,176.9 217.6,178.3 219.1,179.8 220.6,181.3 222.1,182.8 223.6,184.2 225.1,185.7 226.6,187.2 228.1,188.7 229.6,190.2 231.1,191.7 232.6,193.2 234.1,194.7 235.5,196.2 237.0,197.7 238.5,199.2 240.0,200.7 241.5,202.2 243.0,203.7 244.5,205.2 246.0,206.7 247.5,208.2 249.0,209.7 250.5,211.2 251.9,212.7 253.4,214.2 254.9,215.7 256.4,217.2 257.9,218.7 259.4,220.2 260.9,221.6 262.4,223.1 263.9,224.6 265.4,226.1 266.9,227.6 268.4,229.0 269.8,230.5 271.3,232.0 272.8,233.4 274.3,234.9 275.8,236.4 277.3,237.8 278.8,239.3 280.3,240.7 281.8,242.2 283.3,243.6 284.8,245.0 286.2,246.5 287.7,247.9 289.2,249.3 290.7,250.7 292.2,252.1 293.7,253.6 295.2,255.0 296.7,256.4 298.2,257.7 299.7,259.1 301.2,260.5 302.7,261.9 304.1,263.3 305.6,264.6 307.1,266.0 308.6,267.3 310.1,268.7 311.6,270.0 313.1,271.4 314.6,272.7 316.1,274.0 317.6,275.4 319.1,276.7 320.6,278.0 322.0,279.3 323.5,280.6 325.0,281.9 326.5,283.1 328.0,284.4 329.5,285.7 331.0,287.0 332.5,288.2 334.0,289.5 335.5,290.7 337.0,292.0 338.4,293.2 339.9,294.4 341.4,295.6 342.9,296.9 344.4,298.1 345.9,299.3 347.4,300.5 348.9,301.6 350.4,302.8 351.9,304.0 353.4,305.2 354.9,306.3 356.3,307.5 357.8,308.6 359.3,309.8 360.8,310.9 362.3,312.0 363.8,313.2 365.3,314.3 366.8,315.4 368.3,316.5 369.8,317.6 371.3,318.7 372.8,319.8 374.2,320.8 375.7,321.9 377.2,323.0 378.7,324.0 380.2,325.1 381.7,326.1 383.2,327.2 384.7,328.2 386.2,329.2 387.7,330.2 389.2,331.2 390.6,332.3 392.1,333.3 393.6,334.2 395.1,335.2 396.6,336.2 398.1,337.2 399.6,338.2 401.1,339.1 402.6,340.1 404.1,341.0 405.6,342.0 407.1,342.9 408.5,343.8 410.0,344.8 411.5,345.7 413.0,346.6 414.5,347.5 416.0,348.4 417.5,349.3 419.0,350.2 420.5,351.1 422.0,352.0 423.5,352.8 424.9,353.7 426.4,354.6 427.9,355.4 429.4,356.3 430.9,357.1 432.4,358.0 433.9,358.8 435.4,359.6 436.9,360.4 438.4,361.3 439.9,362.1 441.4,362.9 442.8,363.7 444.3,364.5 445.8,365.3 447.3,366.0 448.8,366.8 450.3,367.6 451.8,368.4 453.3,369.1 454.8,369.9 456.3,370.6 457.8,371.4 459.2,372.1 460.7,372.9 462.2,373.6 463.7,374.3 465.2,375.0 466.7,375.8 468.2,376.5 469.7,377.2 471.2,377.9 472.7,378.6 474.2,379.3 475.7,380.0 477.1,380.7 478.6,381.3 480.1,382.0 481.6,382.7 483.1,383.3 484.6,384.0 486.1,384.7 487.6,385.3 489.1,386.0 490.6,386.6 492.1,387.2 493.6,387.9 495.0,388.5 496.5,389.1 498.0,389.8 499.5,390.4 501.0,391.0 502.5,391.6 504.0,392.2 505.5,392.8 507.0,393.4 508.5,394.0 510.0,394.6 511.4,395.2 512.9,395.8 514.4,396.3 515.9,396.9 517.4,397.5 518.9,398.0 520.4,398.6 521.9,399.2 523.4,399.7 524.9,400.3 526.4,400.8 527.9,401.4 529.3,401.9 530.8,402.4 532.3,403.0 533.8,403.5 535.3,404.0 536.8,404.5 538.3,405.0 539.8,405.6 541.3,406.1 542.8,406.6 544.3,407.1 545.8,407.6 547.2,408.1 548.7,408.6 550.2,409.1 551.7,409.6 553.2,410.0 554.7,410.5 556.2,411.0 557.7,411.5 559.2,411.9 560.7,412.4 562.2,412.9 563.6,413.3 565.1,413.8 566.6,414.2 568.1,414.7 569.6,415.1 571.1,415.6 572.6,416.0 574.1,416.5 575.6,416.9 577.1,417.4 578.6,417.8 580.1,418.2 581.5,418.6 583.0,419.1 584.5,419.5 586.0,419.9 587.5,420.3 589.0,420.7 590.5,421.1 592.0,421.5 593.5,421.9 595.0,422.4 596.5,422.7 597.9,423.1 599.4,423.5 600.9,423.9 602.4,424.3 603.9,424.7 605.4,425.1 606.9,425.5 608.4,425.8 609.9,426.2 611.4,426.6 612.9,427.0 614.4,427.3 615.8,427.7 617.3,428.1 618.8,428.4 620.3,428.8 621.8,429.1 623.3,429.5 624.8,429.9 626.3,430.2 627.8,430.6 629.3,430.9 630.8,431.2 632.2,431.6 633.7,431.9 635.2,432.3 636.7,432.6 638.2,432.9 639.7,433.3 641.2,433.6 642.7,433.9 644.2,434.2 645.7,434.6 647.2,434.9 648.7,435.2 650.1,435.5 651.6,435.8 653.1,436.1 654.6,436.5 656.1,436.8 657.6,437.1 659.1,437.4 660.6,437.7 662.1,438.0 663.6,438.3 665.1,438.6 666.6,438.9 668.0,439.2 669.5,439.5 671.0,439.7 672.5,440.0 674.0,440.3 675.5,440.6 677.0,440.9 678.5,441.2 680.0,441.4 681.5,441.7 683.0,442.0 684.4,442.3 685.9,442.5 687.4,442.8 688.9,443.1 690.4,443.4 691.9,443.6 693.4,443.9 694.9,444.2 696.4,444.4 697.9,444.7 699.4,444.9 700.9,445.2 702.3,445.4 703.8,445.7 705.3,445.9 706.8,446.2 708.3,446.4 709.8,446.7 711.3,446.9 712.8,447.2 714.3,447.4 715.8,447.7 717.3,447.9 718.8,448.1 720.2,448.4 721.7,448.6 723.2,448.9 724.7,449.1 726.2,449.3 727.7,449.5 729.2,449.8 730.7,450.0 732.2,450.2 733.7,450.5 735.2,450.7 736.6,450.9 738.1,451.1 739.6,451.3 741.1,451.6 742.6,451.8 744.1,452.0 745.6,452.2 747.1,452.4 748.6,452.6 750.1,452.8 751.6,453.1 753.1,453.3 754.5,453.5 756.0,453.7 757.5,453.9 759.0,454.1 760.5,454.3 762.0,454.5 763.5,454.7 765.0,454.9 766.5,455.1 768.0,455.3 769.5,455.5 770.9,455.7 772.4,455.9 773.9,456.1 775.4,456.3 776.9,456.4 778.4,456.6 779.9,456.8 781.4,457.0 782.9,457.2 784.4,457.4 785.9,457.6 787.4,457.7 788.8,457.9 790.3,458.1 791.8,458.3 793.3,458.5 794.8,458.6 796.3,458.8 797.8,459.0 799.3,459.2 800.8,459.4 802.3,459.5 803.8,459.7 805.2,459.9 806.7,460.0 808.2,460.2 809.7,460.4 811.2,460.5 812.7,460.7 814.2,460.9 815.7,461.0 817.2,461.2 818.7,461.4 820.2,461.5 821.7,461.7 823.1,461.8 824.6,462.0 826.1,462.2 827.6,462.3 829.1,462.5 830.6,462.6 832.1,462.8 833.6,462.9 835.1,463.1 836.6,463.3 838.1,463.4 839.6,463.6 841.0,463.7 842.5,463.9 844.0,464.0 845.5,464.2 847.0,464.3 848.5,464.4 850.0,464.6 851.5,464.7 853.0,464.9 854.5,465.0 856.0,465.2 857.4,465.3 858.9,465.5 860.4,465.6 861.9,465.7 863.4,465.9 864.9,466.0 866.4,466.1 867.9,466.3 869.4,466.4 870.9,466.6 872.4,466.7 873.9,466.8 875.3,467.0 876.8,467.1 878.3,467.2 879.8,467.4 881.3,467.5 882.8,467.6 884.3,467.7 885.8,467.9 887.3,468.0 888.8,468.1 890.3,468.3 891.8,468.4 893.2,468.5 894.7,468.6 896.2,468.8 897.7,468.9 899.2,469.0 900.7,469.1 902.2,469.2 903.7,469.4 905.2,469.5 906.7,469.6 908.2,469.7 909.6,469.8 911.1,470.0 912.6,470.1 914.1,470.2 915.6,470.3 917.1,470.4 918.6,470.5 920.1,470.7 921.6,470.8 923.1,470.9 924.6,471.0 926.1,471.1 927.5,471.2 929.0,471.3 930.5,471.4 932.0,471.5 933.5,471.7 935.0,471.8"/>
<text x="730" y="65" fill="#2563eb">blue: datasheet lookup</text>
<text x="730" y="85" fill="#dc2626">red dashed: 4PL fit</text>
<text x="480.0" y="540" text-anchor="middle">Temperature (C)</text>
<text transform="translate(18 280.0) rotate(-90)" text-anchor="middle">ADC raw</text>
</svg>