<svg xmlns="http://www.w3.org/2000/svg" width="900" height="520" viewBox="0 0 900 520">
<rect width="100%" height="100%" fill="#ffffff"/>
<style>text{font-family:Arial,sans-serif;font-size:13px;fill:#1f2937}.small{font-size:11px;fill:#4b5563}.axis{stroke:#111827;stroke-width:1.4}.grid{stroke:#e5e7eb;stroke-width:1}.curve{fill:none;stroke:#0f766e;stroke-width:3}.dot{fill:#dc2626}</style>
<text x="450.0" y="22" text-anchor="middle" font-size="18" font-weight="700">NTC 10K B3950 calibration curve: temperature to ADC raw</text>
<text x="450.0" y="42" text-anchor="middle" class="small">Assumes STM32 12-bit ADC and 10k series resistor: raw = 4095 * Rntc / (Rntc + 10000)</text>
<line class="grid" x1="70.0" y1="35" x2="70.0" y2="460"/>
<text x="70.0" y="482" text-anchor="middle">-20</text>
<line class="grid" x1="181.0" y1="35" x2="181.0" y2="460"/>
<text x="181.0" y="482" text-anchor="middle">0</text>
<line class="grid" x1="292.1" y1="35" x2="292.1" y2="460"/>
<text x="292.1" y="482" text-anchor="middle">20</text>
<line class="grid" x1="403.1" y1="35" x2="403.1" y2="460"/>
<text x="403.1" y="482" text-anchor="middle">40</text>
<line class="grid" x1="514.1" y1="35" x2="514.1" y2="460"/>
<text x="514.1" y="482" text-anchor="middle">60</text>
<line class="grid" x1="625.2" y1="35" x2="625.2" y2="460"/>
<text x="625.2" y="482" text-anchor="middle">80</text>
<line class="grid" x1="736.2" y1="35" x2="736.2" y2="460"/>
<text x="736.2" y="482" text-anchor="middle">100</text>
<line class="grid" x1="847.2" y1="35" x2="847.2" y2="460"/>
<text x="847.2" y="482" text-anchor="middle">120</text>
<line class="grid" x1="70" y1="460.0" x2="875" y2="460.0"/>
<text x="60" y="464.0" text-anchor="end">0</text>
<line class="grid" x1="70" y1="406.9" x2="875" y2="406.9"/>
<text x="60" y="410.9" text-anchor="end">512</text>
<line class="grid" x1="70" y1="353.7" x2="875" y2="353.7"/>
<text x="60" y="357.7" text-anchor="end">1024</text>
<line class="grid" x1="70" y1="300.6" x2="875" y2="300.6"/>
<text x="60" y="304.6" text-anchor="end">1536</text>
<line class="grid" x1="70" y1="247.4" x2="875" y2="247.4"/>
<text x="60" y="251.4" text-anchor="end">2048</text>
<line class="grid" x1="70" y1="194.3" x2="875" y2="194.3"/>
<text x="60" y="198.3" text-anchor="end">2560</text>
<line class="grid" x1="70" y1="141.2" x2="875" y2="141.2"/>
<text x="60" y="145.2" text-anchor="end">3072</text>
<line class="grid" x1="70" y1="88.0" x2="875" y2="88.0"/>
<text x="60" y="92.0" text-anchor="end">3584</text>
<line class="axis" x1="70" y1="460" x2="875" y2="460"/>
<line class="axis" x1="70" y1="35" x2="70" y2="460"/>
<polyline class="curve" points="70.0,71.8 75.6,74.0 81.1,76.2 86.7,78.5 92.2,80.9 97.8,83.4 103.3,85.9 108.9,88.6 114.4,91.4 120.0,94.3 125.5,97.3 131.1,100.4 136.6,103.5 142.2,106.8 147.7,110.2 153.3,113.7 158.8,117.2 164.4,120.9 169.9,124.7 175.5,128.5 181.0,132.4 186.6,136.4 192.1,140.5 197.7,144.7 203.2,149.0 208.8,153.3 214.3,157.7 219.9,162.1 225.4,166.7 231.0,171.2 236.6,175.8 242.1,180.5 247.7,185.2 253.2,189.9 258.8,194.7 264.3,199.5 269.9,204.3 275.4,209.1 281.0,213.9 286.5,218.8 292.1,223.6 297.6,228.4 303.2,233.2 308.7,238.0 314.3,242.8 319.8,247.5 325.4,252.2 330.9,256.9 336.5,261.5 342.0,266.1 347.6,270.6 353.1,275.1 358.7,279.5 364.2,283.9 369.8,288.2 375.3,292.5 380.9,296.7 386.4,300.8 392.0,304.9 397.6,308.8 403.1,312.8 408.7,316.6 414.2,320.4 419.8,324.0 425.3,327.7 430.9,331.2 436.4,334.7 442.0,338.1 447.5,341.4 453.1,344.6 458.6,347.8 464.2,350.9 469.7,353.9 475.3,356.8 480.8,359.7 486.4,362.5 491.9,365.2 497.5,367.8 503.0,370.4 508.6,372.9 514.1,375.4 519.7,377.8 525.2,380.1 530.8,382.3 536.3,384.5 541.9,386.6 547.4,388.7 553.0,390.7 558.6,392.7 564.1,394.6 569.7,396.4 575.2,398.2 580.8,399.9 586.3,401.6 591.9,403.2 597.4,404.8 603.0,406.4 608.5,407.9 614.1,409.3 619.6,410.7 625.2,412.1 630.7,413.4 636.3,414.7 641.8,416.0 647.4,417.2 652.9,418.3 658.5,419.5 664.0,420.6 669.6,421.7 675.1,422.7 680.7,423.7 686.2,424.7 691.8,425.6 697.3,426.6 702.9,427.5 708.4,428.3 714.0,429.2 719.6,430.0 725.1,430.8 730.7,431.5 736.2,432.3 741.8,433.0 747.3,433.7 752.9,434.4 758.4,435.1 764.0,435.7 769.5,436.3 775.1,436.9 780.6,437.5 786.2,438.1 791.7,438.6 797.3,439.2 802.8,439.7 808.4,440.2 813.9,440.7 819.5,441.2 825.0,441.6 830.6,442.1 836.1,442.5 841.7,443.0 847.2,443.4 852.8,443.8 858.3,444.2 863.9,444.5 869.4,444.9 875.0,445.3"/>
<circle class="dot" cx="70.0" cy="71.8" r="3.5"/>
<text class="small" x="75.0" y="65.8">-20C / 3740</text>
<circle class="dot" cx="125.5" cy="97.3" r="3.5"/>
<text class="small" x="130.5" y="91.3">-10C / 3495</text>
<circle class="dot" cx="181.0" cy="132.4" r="3.5"/>
<text class="small" x="186.0" y="126.4">0C / 3156</text>
<circle class="dot" cx="236.6" cy="175.8" r="3.5"/>
<text class="small" x="241.6" y="169.8">10C / 2738</text>
<circle class="dot" cx="319.8" cy="247.5" r="3.5"/>
<text class="small" x="324.8" y="241.5">25C / 2048</text>
<circle class="dot" cx="403.1" cy="312.8" r="3.5"/>
<text class="small" x="408.1" y="306.8">40C / 1419</text>
<circle class="dot" cx="514.1" cy="375.4" r="3.5"/>
<text class="small" x="519.1" y="369.4">60C / 815</text>
<circle class="dot" cx="625.2" cy="412.1" r="3.5"/>
<text class="small" x="630.2" y="406.1">80C / 462</text>
<circle class="dot" cx="736.2" cy="432.3" r="3.5"/>
<text class="small" x="741.2" y="426.3">100C / 267</text>
<circle class="dot" cx="875.0" cy="445.3" r="3.5"/>
<text class="small" x="880.0" y="439.3">125C / 142</text>
<text x="450.0" y="504" text-anchor="middle">Temperature (C)</text>
<text transform="translate(18 260.0) rotate(-90)" text-anchor="middle">ADC raw</text>
</svg>